<svg xmlns="http://www.w3.org/2000/svg" fill="none" viewBox="0 0 24 24" stroke="currentColor">
  <path stroke-linecap="round" stroke-linejoin="round" stroke-width="2" d="M11.049 2.927c.3-.921 1.603-.921 1.902 0a1.518 1.518 0 002.232.873l.518-.3a1.5 1.5 0 012.07.541l.284.49a1.5 1.5 0 00.873 2.232c.921.3.921 1.603 0 1.902a1.518 1.518 0 00-.873 2.232l.3.518a1.5 1.5 0 01-.541 2.07l-.49.284a1.5 1.5 0 00-2.232.873c-.3.921-1.603.921-1.902 0a1.518 1.518 0 00-2.232-.873l-.518.3a1.5 1.5 0 01-2.07-.541l-.284-.49a1.5 1.5 0 00-.873-2.232c-.921-.3-.921-1.603 0-1.902a1.518 1.518 0 00.873-2.232l-.3-.518a1.5 1.5 0 01.541-2.07l.49-.284a1.5 1.5 0 002.232-.873z"></path>
  <path stroke-linecap="round" stroke-linejoin="round" stroke-width="2" d="M12 8.25a3.75 3.75 0 110 7.5 3.75 3.75 0 010-7.5z"></path>
</svg>
